<?xml version="1.0" encoding="utf-8" standalone="no"?>
<!DOCTYPE svg PUBLIC "-//W3C//DTD SVG 1.1//EN"
  "http://www.w3.org/Graphics/SVG/1.1/DTD/svg11.dtd">
<svg xmlns:xlink="http://www.w3.org/1999/xlink" width="1008pt" height="720pt" viewBox="0 0 1008 720" xmlns="http://www.w3.org/2000/svg" version="1.1">
 <metadata>
  <rdf:RDF xmlns:dc="http://purl.org/dc/elements/1.1/" xmlns:cc="http://creativecommons.org/ns#" xmlns:rdf="http://www.w3.org/1999/02/22-rdf-syntax-ns#">
   <cc:Work>
    <dc:type rdf:resource="http://purl.org/dc/dcmitype/StillImage"/>
    <dc:date>2024-09-25T06:03:24.316000</dc:date>
    <dc:format>image/svg+xml</dc:format>
    <dc:creator>
     <cc:Agent>
      <dc:title>Matplotlib v3.5.2, https://matplotlib.org/</dc:title>
     </cc:Agent>
    </dc:creator>
   </cc:Work>
  </rdf:RDF>
 </metadata>
 <defs>
  <style type="text/css">*{stroke-linejoin: round; stroke-linecap: butt}</style>
 </defs>
 <g id="figure_1">
  <g id="patch_1">
   <path d="M 0 720 
L 1008 720 
L 1008 0 
L 0 0 
z
" style="fill: #ffffff"/>
  </g>
  <g id="axes_1">
   <g id="patch_2">
    <path d="M 126 640.8 
L 907.2 640.8 
L 907.2 86.4 
L 126 86.4 
z
" style="fill: #ffffff"/>
   </g>
   <g id="patch_3">
    <path d="M 422.510852 459.029559 
Q 514.783604 544.52569 630.688308 590.459571 
" clip-path="url(#pa5ef3b4238)" style="fill: none; stroke: #000000; stroke-linecap: round"/>
    <path d="M 627.706543 587.126542 
L 630.688308 590.459571 
L 626.232826 590.845165 
L 627.706543 587.126542 
z
" clip-path="url(#pa5ef3b4238)" style="stroke: #000000; stroke-linecap: round"/>
   </g>
   <g id="patch_4">
    <path d="M 502.804732 352.667465 
Q 349.854898 406.466673 228.112445 511.849283 
" clip-path="url(#pa5ef3b4238)" style="fill: none; stroke: #000000; stroke-linecap: round"/>
    <path d="M 232.445725 510.743532 
L 228.112445 511.849283 
L 229.827813 507.719208 
L 232.445725 510.743532 
z
" clip-path="url(#pa5ef3b4238)" style="stroke: #000000; stroke-linecap: round"/>
   </g>
   <g id="patch_5">
    <path d="M 519.187367 376.157155 
Q 666.060802 375.313626 801.469961 321.371898 
" clip-path="url(#pa5ef3b4238)" style="fill: none; stroke: #000000; stroke-linecap: round"/>
    <path d="M 797.013802 320.994208 
L 801.469961 321.371898 
L 798.494113 324.710211 
L 797.013802 320.994208 
z
" clip-path="url(#pa5ef3b4238)" style="stroke: #000000; stroke-linecap: round"/>
   </g>
   <g id="patch_6">
    <path d="M 642.485895 280.549918 
Q 725.108825 365.535241 831.785683 414.579382 
" clip-path="url(#pa5ef3b4238)" style="fill: none; stroke: #000000; stroke-linecap: round"/>
    <path d="M 828.986798 411.091368 
L 831.785683 414.579382 
L 827.315941 414.725682 
L 828.986798 411.091368 
z
" clip-path="url(#pa5ef3b4238)" style="stroke: #000000; stroke-linecap: round"/>
   </g>
   <g id="patch_7">
    <path d="M 473.921208 186.448254 
Q 579.292333 194.728021 679.586857 165.104086 
" clip-path="url(#pa5ef3b4238)" style="fill: none; stroke: #000000; stroke-linecap: round"/>
    <path d="M 675.184155 164.31909 
L 679.586857 165.104086 
L 676.317239 168.15525 
L 675.184155 164.31909 
z
" clip-path="url(#pa5ef3b4238)" style="stroke: #000000; stroke-linecap: round"/>
   </g>
   <g id="patch_8">
    <path d="M 641.796788 503.643842 
Q 568.855199 519.901668 507.042203 559.877899 
" clip-path="url(#pa5ef3b4238)" style="fill: none; stroke: #000000; stroke-linecap: round"/>
    <path d="M 511.487101 559.385069 
L 507.042203 559.877899 
L 509.314878 556.026282 
L 511.487101 559.385069 
z
" clip-path="url(#pa5ef3b4238)" style="stroke: #000000; stroke-linecap: round"/>
   </g>
   <g id="patch_9">
    <path d="M 411.061085 446.124453 
Q 331.510188 340.342977 203.087527 313.303149 
" clip-path="url(#pa5ef3b4238)" style="fill: none; stroke-dasharray: 3.7,1.6; stroke-dashoffset: 0; stroke: #000000; stroke-linecap: round"/>
    <path d="M 206.589633 316.084382 
L 203.087527 313.303149 
L 207.413777 312.170204 
L 206.589633 316.084382 
z
" clip-path="url(#pa5ef3b4238)" style="stroke-dasharray: 3.7,1.6; stroke-dashoffset: 0; stroke: #000000; stroke-linecap: round"/>
   </g>
   <g id="patch_10">
    <path d="M 519.553645 348.55497 
Q 688.322806 321.920386 795.927621 190.646662 
" clip-path="url(#pa5ef3b4238)" style="fill: none; stroke-dasharray: 3.7,1.6; stroke-dashoffset: 0; stroke: #000000; stroke-linecap: round"/>
    <path d="M 791.845097 192.472311 
L 795.927621 190.646662 
L 794.938626 195.008071 
L 791.845097 192.472311 
z
" clip-path="url(#pa5ef3b4238)" style="stroke-dasharray: 3.7,1.6; stroke-dashoffset: 0; stroke: #000000; stroke-linecap: round"/>
   </g>
   <g id="patch_11">
    <path d="M 502.009949 374.566535 
Q 349.599379 347.490482 218.464299 427.621493 
" clip-path="url(#pa5ef3b4238)" style="fill: none; stroke-dasharray: 3.7,1.6; stroke-dashoffset: 0; stroke: #000000; stroke-linecap: round"/>
    <path d="M 222.920341 427.242432 
L 218.464299 427.621493 
L 220.834676 423.829223 
L 222.920341 427.242432 
z
" clip-path="url(#pa5ef3b4238)" style="stroke-dasharray: 3.7,1.6; stroke-dashoffset: 0; stroke: #000000; stroke-linecap: round"/>
   </g>
   <g id="patch_12">
    <path d="M 631.677338 267.10299 
Q 561.0779 164.037748 441.245834 132.913325 
" clip-path="url(#pa5ef3b4238)" style="fill: none; stroke-dasharray: 3.7,1.6; stroke-dashoffset: 0; stroke: #000000; stroke-linecap: round"/>
    <path d="M 444.61459 135.854666 
L 441.245834 132.913325 
L 445.62016 131.983125 
L 444.61459 135.854666 
z
" clip-path="url(#pa5ef3b4238)" style="stroke-dasharray: 3.7,1.6; stroke-dashoffset: 0; stroke: #000000; stroke-linecap: round"/>
   </g>
   <g id="patch_13">
    <path d="M 456.921425 183.470839 
Q 349.098976 156.115664 250.545681 205.245504 
" clip-path="url(#pa5ef3b4238)" style="fill: none; stroke-dasharray: 3.7,1.6; stroke-dashoffset: 0; stroke: #000000; stroke-linecap: round"/>
    <path d="M 255.017814 205.250837 
L 250.545681 205.245504 
L 253.233227 201.670998 
L 255.017814 205.250837 
z
" clip-path="url(#pa5ef3b4238)" style="stroke-dasharray: 3.7,1.6; stroke-dashoffset: 0; stroke: #000000; stroke-linecap: round"/>
   </g>
   <g id="patch_14">
    <path d="M 658.222034 505.27543 
Q 740.434185 539.228423 824.137533 512.623072 
" clip-path="url(#pa5ef3b4238)" style="fill: none; stroke-dasharray: 3.7,1.6; stroke-dashoffset: 0; stroke: #000000; stroke-linecap: round"/>
    <path d="M 819.71963 511.928715 
L 824.137533 512.623072 
L 820.931306 515.740781 
L 819.71963 511.928715 
z
" clip-path="url(#pa5ef3b4238)" style="stroke-dasharray: 3.7,1.6; stroke-dashoffset: 0; stroke: #000000; stroke-linecap: round"/>
   </g>
   <g id="matplotlib.axis_1">
    <g id="xtick_1"/>
    <g id="xtick_2"/>
    <g id="xtick_3"/>
    <g id="xtick_4"/>
    <g id="xtick_5"/>
    <g id="xtick_6"/>
    <g id="xtick_7"/>
    <g id="xtick_8"/>
    <g id="xtick_9"/>
   </g>
   <g id="matplotlib.axis_2">
    <g id="ytick_1"/>
    <g id="ytick_2"/>
    <g id="ytick_3"/>
    <g id="ytick_4"/>
    <g id="ytick_5"/>
   </g>
   <g id="PathCollection_1">
    <defs>
     <path id="m904aa3ce53" d="M 0 8.660254 
C 2.296726 8.660254 4.499694 7.747755 6.123724 6.123724 
C 7.747755 4.499694 8.660254 2.296726 8.660254 0 
C 8.660254 -2.296726 7.747755 -4.499694 6.123724 -6.123724 
C 4.499694 -7.747755 2.296726 -8.660254 0 -8.660254 
C -2.296726 -8.660254 -4.499694 -7.747755 -6.123724 -6.123724 
C -7.747755 -4.499694 -8.660254 -2.296726 -8.660254 0 
C -8.660254 2.296726 -7.747755 4.499694 -6.123724 6.123724 
C -4.499694 7.747755 -2.296726 8.660254 0 8.660254 
z
" style="stroke: #008000"/>
    </defs>
    <g clip-path="url(#pa5ef3b4238)">
     <use xlink:href="#m904aa3ce53" x="416.192706" y="453.102069" style="fill: #008000; stroke: #008000"/>
     <use xlink:href="#m904aa3ce53" x="193.504525" y="311.379844" style="fill: #008000; stroke: #008000"/>
     <use xlink:href="#m904aa3ce53" x="510.99071" y="349.832969" style="fill: #008000; stroke: #008000"/>
     <use xlink:href="#m904aa3ce53" x="802.06929" y="183.039707" style="fill: #008000; stroke: #008000"/>
     <use xlink:href="#m904aa3ce53" x="510.525887" y="376.16042" style="fill: #008000; stroke: #008000"/>
     <use xlink:href="#m904aa3ce53" x="210.163265" y="432.787272" style="fill: #008000; stroke: #008000"/>
     <use xlink:href="#m904aa3ce53" x="639.800855" y="594.013067" style="fill: #008000; stroke: #008000"/>
     <use xlink:href="#m904aa3ce53" x="220.745737" y="518.282024" style="fill: #008000; stroke: #008000"/>
     <use xlink:href="#m904aa3ce53" x="636.488794" y="274.299757" style="fill: #008000; stroke: #008000"/>
     <use xlink:href="#m904aa3ce53" x="431.755087" y="130.549241" style="fill: #008000; stroke: #008000"/>
     <use xlink:href="#m904aa3ce53" x="810.537134" y="317.709867" style="fill: #008000; stroke: #008000"/>
     <use xlink:href="#m904aa3ce53" x="465.290614" y="185.706611" style="fill: #008000; stroke: #008000"/>
     <use xlink:href="#m904aa3ce53" x="241.841371" y="209.706501" style="fill: #008000; stroke: #008000"/>
     <use xlink:href="#m904aa3ce53" x="650.267068" y="501.844858" style="fill: #008000; stroke: #008000"/>
     <use xlink:href="#m904aa3ce53" x="833.413206" y="509.534071" style="fill: #008000; stroke: #008000"/>
     <use xlink:href="#m904aa3ce53" x="840.69352" y="418.612146" style="fill: #008000; stroke: #008000"/>
     <use xlink:href="#m904aa3ce53" x="688.943862" y="162.274404" style="fill: #008000; stroke: #008000"/>
     <use xlink:href="#m904aa3ce53" x="498.881203" y="565.259196" style="fill: #008000; stroke: #008000"/>
    </g>
   </g>
   <g id="patch_15">
    <path d="M 126 640.8 
L 126 86.4 
" style="fill: none; stroke: #000000; stroke-width: 0.8; stroke-linejoin: miter; stroke-linecap: square"/>
   </g>
   <g id="patch_16">
    <path d="M 907.2 640.8 
L 907.2 86.4 
" style="fill: none; stroke: #000000; stroke-width: 0.8; stroke-linejoin: miter; stroke-linecap: square"/>
   </g>
   <g id="patch_17">
    <path d="M 126 640.8 
L 907.2 640.8 
" style="fill: none; stroke: #000000; stroke-width: 0.8; stroke-linejoin: miter; stroke-linecap: square"/>
   </g>
   <g id="patch_18">
    <path d="M 126 86.4 
L 907.2 86.4 
" style="fill: none; stroke: #000000; stroke-width: 0.8; stroke-linejoin: miter; stroke-linecap: square"/>
   </g>
   <g id="text_1">
    <g clip-path="url(#pa5ef3b4238)">
     <!-- катання на велосипеді -->
     <g transform="translate(355.606768 455.861444)scale(0.1 -0.1)">
      <defs>
       <path id="DejaVuSans-43a" d="M 581 3500 
L 1153 3500 
L 1153 1856 
L 2775 3500 
L 3481 3500 
L 2144 2147 
L 3653 0 
L 3009 0 
L 1769 1766 
L 1153 1141 
L 1153 0 
L 581 0 
L 581 3500 
z
" transform="scale(0.015625)"/>
       <path id="DejaVuSans-430" d="M 2194 1759 
Q 1497 1759 1228 1600 
Q 959 1441 959 1056 
Q 959 750 1161 570 
Q 1363 391 1709 391 
Q 2188 391 2477 730 
Q 2766 1069 2766 1631 
L 2766 1759 
L 2194 1759 
z
M 3341 1997 
L 3341 0 
L 2766 0 
L 2766 531 
Q 2569 213 2275 61 
Q 1981 -91 1556 -91 
Q 1019 -91 701 211 
Q 384 513 384 1019 
Q 384 1609 779 1909 
Q 1175 2209 1959 2209 
L 2766 2209 
L 2766 2266 
Q 2766 2663 2505 2880 
Q 2244 3097 1772 3097 
Q 1472 3097 1187 3025 
Q 903 2953 641 2809 
L 641 3341 
Q 956 3463 1253 3523 
Q 1550 3584 1831 3584 
Q 2591 3584 2966 3190 
Q 3341 2797 3341 1997 
z
" transform="scale(0.015625)"/>
       <path id="DejaVuSans-442" d="M 188 3500 
L 3541 3500 
L 3541 3041 
L 2147 3041 
L 2147 0 
L 1581 0 
L 1581 3041 
L 188 3041 
L 188 3500 
z
" transform="scale(0.015625)"/>
       <path id="DejaVuSans-43d" d="M 581 3500 
L 1159 3500 
L 1159 2072 
L 3025 2072 
L 3025 3500 
L 3603 3500 
L 3603 0 
L 3025 0 
L 3025 1613 
L 1159 1613 
L 1159 0 
L 581 0 
L 581 3500 
z
" transform="scale(0.015625)"/>
       <path id="DejaVuSans-44f" d="M 1181 2491 
Q 1181 2231 1381 2084 
Q 1581 1938 1953 1938 
L 2728 1938 
L 2728 3041 
L 1953 3041 
Q 1581 3041 1381 2897 
Q 1181 2753 1181 2491 
z
M 363 0 
L 1431 1534 
Q 1069 1616 828 1830 
Q 588 2044 588 2491 
Q 588 2997 923 3248 
Q 1259 3500 1938 3500 
L 3306 3500 
L 3306 0 
L 2728 0 
L 2728 1478 
L 2013 1478 
L 981 0 
L 363 0 
z
" transform="scale(0.015625)"/>
       <path id="DejaVuSans-20" transform="scale(0.015625)"/>
       <path id="DejaVuSans-432" d="M 1156 1613 
L 1156 459 
L 1975 459 
Q 2369 459 2575 607 
Q 2781 756 2781 1038 
Q 2781 1319 2575 1466 
Q 2369 1613 1975 1613 
L 1156 1613 
z
M 1156 3041 
L 1156 2072 
L 1913 2072 
Q 2238 2072 2444 2201 
Q 2650 2331 2650 2563 
Q 2650 2794 2444 2917 
Q 2238 3041 1913 3041 
L 1156 3041 
z
M 581 3500 
L 1950 3500 
Q 2566 3500 2897 3275 
Q 3228 3050 3228 2634 
Q 3228 2313 3059 2123 
Q 2891 1934 2559 1888 
Q 2956 1813 3175 1575 
Q 3394 1338 3394 981 
Q 3394 513 3033 256 
Q 2672 0 2003 0 
L 581 0 
L 581 3500 
z
" transform="scale(0.015625)"/>
       <path id="DejaVuSans-435" d="M 3597 1894 
L 3597 1613 
L 953 1613 
Q 991 1019 1311 708 
Q 1631 397 2203 397 
Q 2534 397 2845 478 
Q 3156 559 3463 722 
L 3463 178 
Q 3153 47 2828 -22 
Q 2503 -91 2169 -91 
Q 1331 -91 842 396 
Q 353 884 353 1716 
Q 353 2575 817 3079 
Q 1281 3584 2069 3584 
Q 2775 3584 3186 3129 
Q 3597 2675 3597 1894 
z
M 3022 2063 
Q 3016 2534 2758 2815 
Q 2500 3097 2075 3097 
Q 1594 3097 1305 2825 
Q 1016 2553 972 2059 
L 3022 2063 
z
" transform="scale(0.015625)"/>
       <path id="DejaVuSans-43b" d="M 238 0 
L 238 478 
Q 806 566 981 959 
Q 1194 1513 1194 2928 
L 1194 3500 
L 3559 3500 
L 3559 0 
L 2984 0 
L 2984 3041 
L 1769 3041 
L 1769 2694 
Q 1769 1344 1494 738 
Q 1200 91 238 0 
z
" transform="scale(0.015625)"/>
       <path id="DejaVuSans-43e" d="M 1959 3097 
Q 1497 3097 1228 2736 
Q 959 2375 959 1747 
Q 959 1119 1226 758 
Q 1494 397 1959 397 
Q 2419 397 2687 759 
Q 2956 1122 2956 1747 
Q 2956 2369 2687 2733 
Q 2419 3097 1959 3097 
z
M 1959 3584 
Q 2709 3584 3137 3096 
Q 3566 2609 3566 1747 
Q 3566 888 3137 398 
Q 2709 -91 1959 -91 
Q 1206 -91 779 398 
Q 353 888 353 1747 
Q 353 2609 779 3096 
Q 1206 3584 1959 3584 
z
" transform="scale(0.015625)"/>
       <path id="DejaVuSans-441" d="M 3122 3366 
L 3122 2828 
Q 2878 2963 2633 3030 
Q 2388 3097 2138 3097 
Q 1578 3097 1268 2742 
Q 959 2388 959 1747 
Q 959 1106 1268 751 
Q 1578 397 2138 397 
Q 2388 397 2633 464 
Q 2878 531 3122 666 
L 3122 134 
Q 2881 22 2623 -34 
Q 2366 -91 2075 -91 
Q 1284 -91 818 406 
Q 353 903 353 1747 
Q 353 2603 823 3093 
Q 1294 3584 2113 3584 
Q 2378 3584 2631 3529 
Q 2884 3475 3122 3366 
z
" transform="scale(0.015625)"/>
       <path id="DejaVuSans-438" d="M 3578 3500 
L 3578 0 
L 3006 0 
L 3006 2809 
L 1319 0 
L 581 0 
L 581 3500 
L 1153 3500 
L 1153 697 
L 2838 3500 
L 3578 3500 
z
" transform="scale(0.015625)"/>
       <path id="DejaVuSans-43f" d="M 3603 3500 
L 3603 0 
L 3025 0 
L 3025 3041 
L 1159 3041 
L 1159 0 
L 581 0 
L 581 3500 
L 3603 3500 
z
" transform="scale(0.015625)"/>
       <path id="DejaVuSans-434" d="M 1384 459 
L 3053 459 
L 3053 3041 
L 1844 3041 
L 1844 2603 
Q 1844 1316 1475 628 
L 1384 459 
z
M 550 459 
Q 834 584 959 850 
Q 1266 1509 1266 2838 
L 1266 3500 
L 3631 3500 
L 3631 459 
L 4091 459 
L 4091 -884 
L 3631 -884 
L 3631 0 
L 794 0 
L 794 -884 
L 334 -884 
L 334 459 
L 550 459 
z
" transform="scale(0.015625)"/>
       <path id="DejaVuSans-456" d="M 603 3500 
L 1178 3500 
L 1178 0 
L 603 0 
L 603 3500 
z
M 603 4863 
L 1178 4863 
L 1178 4134 
L 603 4134 
L 603 4863 
z
" transform="scale(0.015625)"/>
      </defs>
      <use xlink:href="#DejaVuSans-43a"/>
      <use xlink:href="#DejaVuSans-430" x="60.400391"/>
      <use xlink:href="#DejaVuSans-442" x="121.679688"/>
      <use xlink:href="#DejaVuSans-430" x="179.931641"/>
      <use xlink:href="#DejaVuSans-43d" x="241.210938"/>
      <use xlink:href="#DejaVuSans-43d" x="306.591797"/>
      <use xlink:href="#DejaVuSans-44f" x="371.972656"/>
      <use xlink:href="#DejaVuSans-20" x="432.128906"/>
      <use xlink:href="#DejaVuSans-43d" x="463.916016"/>
      <use xlink:href="#DejaVuSans-430" x="529.296875"/>
      <use xlink:href="#DejaVuSans-20" x="590.576172"/>
      <use xlink:href="#DejaVuSans-432" x="622.363281"/>
      <use xlink:href="#DejaVuSans-435" x="681.298828"/>
      <use xlink:href="#DejaVuSans-43b" x="742.822266"/>
      <use xlink:href="#DejaVuSans-43e" x="806.738281"/>
      <use xlink:href="#DejaVuSans-441" x="867.919922"/>
      <use xlink:href="#DejaVuSans-438" x="922.900391"/>
      <use xlink:href="#DejaVuSans-43f" x="987.890625"/>
      <use xlink:href="#DejaVuSans-435" x="1053.271484"/>
      <use xlink:href="#DejaVuSans-434" x="1114.794922"/>
      <use xlink:href="#DejaVuSans-456" x="1183.935547"/>
     </g>
    </g>
   </g>
   <g id="text_2">
    <g clip-path="url(#pa5ef3b4238)">
     <!-- потреба в обладнанні -->
     <g transform="translate(135.620931 314.224375)scale(0.1 -0.1)">
      <defs>
       <path id="DejaVuSans-440" d="M 1159 525 
L 1159 -1331 
L 581 -1331 
L 581 3500 
L 1159 3500 
L 1159 2969 
Q 1341 3281 1617 3432 
Q 1894 3584 2278 3584 
Q 2916 3584 3314 3078 
Q 3713 2572 3713 1747 
Q 3713 922 3314 415 
Q 2916 -91 2278 -91 
Q 1894 -91 1617 61 
Q 1341 213 1159 525 
z
M 3116 1747 
Q 3116 2381 2855 2742 
Q 2594 3103 2138 3103 
Q 1681 3103 1420 2742 
Q 1159 2381 1159 1747 
Q 1159 1113 1420 752 
Q 1681 391 2138 391 
Q 2594 391 2855 752 
Q 3116 1113 3116 1747 
z
" transform="scale(0.015625)"/>
       <path id="DejaVuSans-431" d="M 1991 3584 
Q 2741 3584 3169 3096 
Q 3597 2609 3597 1747 
Q 3597 888 3169 398 
Q 2741 -91 1991 -91 
Q 1238 -91 822 384 
Q 406 859 384 1747 
L 366 2463 
Q 350 2834 350 2963 
Q 350 3463 531 3831 
Q 816 4409 1308 4659 
Q 1800 4909 2625 4916 
Q 3006 4919 3175 4972 
L 3334 4516 
Q 3181 4453 3041 4450 
L 2259 4397 
Q 1866 4369 1628 4231 
Q 1006 3866 947 3388 
L 925 3213 
Q 1331 3584 1991 3584 
z
M 1991 3097 
Q 1528 3097 1259 2736 
Q 991 2375 991 1747 
Q 991 1119 1258 758 
Q 1525 397 1991 397 
Q 2450 397 2719 759 
Q 2988 1122 2988 1747 
Q 2988 2369 2719 2733 
Q 2450 3097 1991 3097 
z
" transform="scale(0.015625)"/>
      </defs>
      <use xlink:href="#DejaVuSans-43f"/>
      <use xlink:href="#DejaVuSans-43e" x="65.380859"/>
      <use xlink:href="#DejaVuSans-442" x="126.5625"/>
      <use xlink:href="#DejaVuSans-440" x="184.814453"/>
      <use xlink:href="#DejaVuSans-435" x="248.291016"/>
      <use xlink:href="#DejaVuSans-431" x="309.814453"/>
      <use xlink:href="#DejaVuSans-430" x="371.484375"/>
      <use xlink:href="#DejaVuSans-20" x="432.763672"/>
      <use xlink:href="#DejaVuSans-432" x="464.550781"/>
      <use xlink:href="#DejaVuSans-20" x="523.486328"/>
      <use xlink:href="#DejaVuSans-43e" x="555.273438"/>
      <use xlink:href="#DejaVuSans-431" x="616.455078"/>
      <use xlink:href="#DejaVuSans-43b" x="678.125"/>
      <use xlink:href="#DejaVuSans-430" x="742.041016"/>
      <use xlink:href="#DejaVuSans-434" x="803.320312"/>
      <use xlink:href="#DejaVuSans-43d" x="872.460938"/>
      <use xlink:href="#DejaVuSans-430" x="937.841797"/>
      <use xlink:href="#DejaVuSans-43d" x="999.121094"/>
      <use xlink:href="#DejaVuSans-43d" x="1064.501953"/>
      <use xlink:href="#DejaVuSans-456" x="1129.882812"/>
     </g>
    </g>
   </g>
   <g id="text_3">
    <g clip-path="url(#pa5ef3b4238)">
     <!-- теніс -->
     <g transform="translate(497.594617 352.592344)scale(0.1 -0.1)">
      <use xlink:href="#DejaVuSans-442"/>
      <use xlink:href="#DejaVuSans-435" x="58.251953"/>
      <use xlink:href="#DejaVuSans-43d" x="119.775391"/>
      <use xlink:href="#DejaVuSans-456" x="185.15625"/>
      <use xlink:href="#DejaVuSans-441" x="212.939453"/>
     </g>
    </g>
   </g>
   <g id="text_4">
    <g clip-path="url(#pa5ef3b4238)">
     <!-- потреба в спеціальному обладнанні -->
     <g transform="translate(706.443509 185.884238)scale(0.1 -0.1)">
      <defs>
       <path id="DejaVuSans-446" d="M 3603 0 
L 581 0 
L 581 3500 
L 1159 3500 
L 1159 459 
L 3025 459 
L 3025 3500 
L 3603 3500 
L 3603 459 
L 4063 459 
L 4063 -884 
L 3603 -884 
L 3603 0 
z
" transform="scale(0.015625)"/>
       <path id="DejaVuSans-44c" d="M 2781 1038 
Q 2781 1319 2576 1466 
Q 2372 1613 1978 1613 
L 1159 1613 
L 1159 459 
L 1978 459 
Q 2372 459 2576 607 
Q 2781 756 2781 1038 
z
M 581 3500 
L 1159 3500 
L 1159 2072 
L 2003 2072 
Q 2672 2072 3033 1817 
Q 3394 1563 3394 1038 
Q 3394 513 3033 256 
Q 2672 0 2003 0 
L 581 0 
L 581 3500 
z
" transform="scale(0.015625)"/>
       <path id="DejaVuSans-43c" d="M 581 3500 
L 1422 3500 
L 2416 1156 
L 3413 3500 
L 4247 3500 
L 4247 0 
L 3669 0 
L 3669 2950 
L 2703 672 
L 2128 672 
L 1159 2950 
L 1159 0 
L 581 0 
L 581 3500 
z
" transform="scale(0.015625)"/>
       <path id="DejaVuSans-443" d="M 2059 -325 
Q 1816 -950 1584 -1140 
Q 1353 -1331 966 -1331 
L 506 -1331 
L 506 -850 
L 844 -850 
Q 1081 -850 1212 -737 
Q 1344 -625 1503 -206 
L 1606 56 
L 191 3500 
L 800 3500 
L 1894 763 
L 2988 3500 
L 3597 3500 
L 2059 -325 
z
" transform="scale(0.015625)"/>
      </defs>
      <use xlink:href="#DejaVuSans-43f"/>
      <use xlink:href="#DejaVuSans-43e" x="65.380859"/>
      <use xlink:href="#DejaVuSans-442" x="126.5625"/>
      <use xlink:href="#DejaVuSans-440" x="184.814453"/>
      <use xlink:href="#DejaVuSans-435" x="248.291016"/>
      <use xlink:href="#DejaVuSans-431" x="309.814453"/>
      <use xlink:href="#DejaVuSans-430" x="371.484375"/>
      <use xlink:href="#DejaVuSans-20" x="432.763672"/>
      <use xlink:href="#DejaVuSans-432" x="464.550781"/>
      <use xlink:href="#DejaVuSans-20" x="523.486328"/>
      <use xlink:href="#DejaVuSans-441" x="555.273438"/>
      <use xlink:href="#DejaVuSans-43f" x="610.253906"/>
      <use xlink:href="#DejaVuSans-435" x="675.634766"/>
      <use xlink:href="#DejaVuSans-446" x="737.158203"/>
      <use xlink:href="#DejaVuSans-456" x="805.224609"/>
      <use xlink:href="#DejaVuSans-430" x="833.007812"/>
      <use xlink:href="#DejaVuSans-43b" x="894.287109"/>
      <use xlink:href="#DejaVuSans-44c" x="958.203125"/>
      <use xlink:href="#DejaVuSans-43d" x="1017.138672"/>
      <use xlink:href="#DejaVuSans-43e" x="1082.519531"/>
      <use xlink:href="#DejaVuSans-43c" x="1143.701172"/>
      <use xlink:href="#DejaVuSans-443" x="1219.140625"/>
      <use xlink:href="#DejaVuSans-20" x="1278.320312"/>
      <use xlink:href="#DejaVuSans-43e" x="1310.107422"/>
      <use xlink:href="#DejaVuSans-431" x="1371.289062"/>
      <use xlink:href="#DejaVuSans-43b" x="1432.958984"/>
      <use xlink:href="#DejaVuSans-430" x="1496.875"/>
      <use xlink:href="#DejaVuSans-434" x="1558.154297"/>
      <use xlink:href="#DejaVuSans-43d" x="1627.294922"/>
      <use xlink:href="#DejaVuSans-430" x="1692.675781"/>
      <use xlink:href="#DejaVuSans-43d" x="1753.955078"/>
      <use xlink:href="#DejaVuSans-43d" x="1819.335938"/>
      <use xlink:href="#DejaVuSans-456" x="1884.716797"/>
     </g>
    </g>
   </g>
   <g id="text_5">
    <g clip-path="url(#pa5ef3b4238)">
     <!-- бокс -->
     <g transform="translate(498.613387 378.919795)scale(0.1 -0.1)">
      <use xlink:href="#DejaVuSans-431"/>
      <use xlink:href="#DejaVuSans-43e" x="61.669922"/>
      <use xlink:href="#DejaVuSans-43a" x="122.851562"/>
      <use xlink:href="#DejaVuSans-441" x="183.251953"/>
     </g>
    </g>
   </g>
   <g id="text_6">
    <g clip-path="url(#pa5ef3b4238)">
     <!-- високий ризик травм -->
     <g transform="translate(154.240608 435.546647)scale(0.1 -0.1)">
      <defs>
       <path id="DejaVuSans-439" d="M 3578 3500 
L 3578 0 
L 3006 0 
L 3006 2809 
L 1319 0 
L 581 0 
L 581 3500 
L 1153 3500 
L 1153 697 
L 2838 3500 
L 3578 3500 
z
M 1102 4833 
L 1471 4833 
Q 1505 4599 1656 4481 
Q 1808 4364 2080 4364 
Q 2349 4364 2499 4480 
Q 2649 4596 2689 4833 
L 3058 4833 
Q 3027 4386 2780 4161 
Q 2533 3936 2080 3936 
Q 1627 3936 1380 4161 
Q 1133 4386 1102 4833 
z
" transform="scale(0.015625)"/>
       <path id="DejaVuSans-437" d="M 2206 1888 
Q 2594 1813 2809 1584 
Q 3025 1356 3025 1019 
Q 3025 478 2622 193 
Q 2219 -91 1475 -91 
Q 1225 -91 961 -47 
Q 697 -3 416 84 
L 416 619 
Q 638 503 903 445 
Q 1169 388 1459 388 
Q 1931 388 2195 563 
Q 2459 738 2459 1019 
Q 2459 1294 2225 1461 
Q 1991 1628 1563 1628 
L 1100 1628 
L 1100 2103 
L 1584 2103 
Q 1947 2103 2158 2242 
Q 2369 2381 2369 2600 
Q 2369 2800 2151 2944 
Q 1934 3088 1563 3088 
Q 1341 3088 1089 3047 
Q 838 3006 534 2916 
L 534 3438 
Q 841 3513 1106 3550 
Q 1372 3588 1609 3588 
Q 2222 3588 2576 3342 
Q 2931 3097 2931 2656 
Q 2931 2366 2743 2164 
Q 2556 1963 2206 1888 
z
" transform="scale(0.015625)"/>
      </defs>
      <use xlink:href="#DejaVuSans-432"/>
      <use xlink:href="#DejaVuSans-438" x="58.935547"/>
      <use xlink:href="#DejaVuSans-441" x="123.925781"/>
      <use xlink:href="#DejaVuSans-43e" x="178.90625"/>
      <use xlink:href="#DejaVuSans-43a" x="240.087891"/>
      <use xlink:href="#DejaVuSans-438" x="300.488281"/>
      <use xlink:href="#DejaVuSans-439" x="365.478516"/>
      <use xlink:href="#DejaVuSans-20" x="430.46875"/>
      <use xlink:href="#DejaVuSans-440" x="462.255859"/>
      <use xlink:href="#DejaVuSans-438" x="525.732422"/>
      <use xlink:href="#DejaVuSans-437" x="590.722656"/>
      <use xlink:href="#DejaVuSans-438" x="643.896484"/>
      <use xlink:href="#DejaVuSans-43a" x="708.886719"/>
      <use xlink:href="#DejaVuSans-20" x="769.287109"/>
      <use xlink:href="#DejaVuSans-442" x="801.074219"/>
      <use xlink:href="#DejaVuSans-440" x="859.326172"/>
      <use xlink:href="#DejaVuSans-430" x="922.802734"/>
      <use xlink:href="#DejaVuSans-432" x="984.082031"/>
      <use xlink:href="#DejaVuSans-43c" x="1043.017578"/>
     </g>
    </g>
   </g>
   <g id="text_7">
    <g clip-path="url(#pa5ef3b4238)">
     <!-- поліпшення витривалості -->
     <g transform="translate(571.983668 596.772442)scale(0.1 -0.1)">
      <defs>
       <path id="DejaVuSans-448" d="M 3216 459 
L 4697 459 
L 4697 3500 
L 5275 3500 
L 5275 0 
L 581 0 
L 581 3500 
L 1159 3500 
L 1159 459 
L 2638 459 
L 2638 3500 
L 3216 3500 
L 3216 459 
z
" transform="scale(0.015625)"/>
      </defs>
      <use xlink:href="#DejaVuSans-43f"/>
      <use xlink:href="#DejaVuSans-43e" x="65.380859"/>
      <use xlink:href="#DejaVuSans-43b" x="126.5625"/>
      <use xlink:href="#DejaVuSans-456" x="190.478516"/>
      <use xlink:href="#DejaVuSans-43f" x="218.261719"/>
      <use xlink:href="#DejaVuSans-448" x="283.642578"/>
      <use xlink:href="#DejaVuSans-435" x="375.146484"/>
      <use xlink:href="#DejaVuSans-43d" x="436.669922"/>
      <use xlink:href="#DejaVuSans-43d" x="502.050781"/>
      <use xlink:href="#DejaVuSans-44f" x="567.431641"/>
      <use xlink:href="#DejaVuSans-20" x="627.587891"/>
      <use xlink:href="#DejaVuSans-432" x="659.375"/>
      <use xlink:href="#DejaVuSans-438" x="718.310547"/>
      <use xlink:href="#DejaVuSans-442" x="783.300781"/>
      <use xlink:href="#DejaVuSans-440" x="841.552734"/>
      <use xlink:href="#DejaVuSans-438" x="905.029297"/>
      <use xlink:href="#DejaVuSans-432" x="970.019531"/>
      <use xlink:href="#DejaVuSans-430" x="1028.955078"/>
      <use xlink:href="#DejaVuSans-43b" x="1090.234375"/>
      <use xlink:href="#DejaVuSans-43e" x="1154.150391"/>
      <use xlink:href="#DejaVuSans-441" x="1215.332031"/>
      <use xlink:href="#DejaVuSans-442" x="1270.3125"/>
      <use xlink:href="#DejaVuSans-456" x="1328.564453"/>
     </g>
    </g>
   </g>
   <g id="text_8">
    <g clip-path="url(#pa5ef3b4238)">
     <!-- покращення реакції -->
     <g transform="translate(167.722299 521.041399)scale(0.1 -0.1)">
      <defs>
       <path id="DejaVuSans-449" d="M 5275 0 
L 581 0 
L 581 3500 
L 1159 3500 
L 1159 459 
L 2638 459 
L 2638 3500 
L 3216 3500 
L 3216 459 
L 4697 459 
L 4697 3500 
L 5275 3500 
L 5275 459 
L 5734 459 
L 5734 -884 
L 5275 -884 
L 5275 0 
z
" transform="scale(0.015625)"/>
       <path id="DejaVuSans-457" d="M 603 3500 
L 1178 3500 
L 1178 0 
L 603 0 
L 603 3500 
z
M 891 3584 
L 891 3584 
z
M 1182 4850 
L 1816 4850 
L 1816 4219 
L 1182 4219 
L 1182 4850 
z
M -40 4850 
L 594 4850 
L 594 4219 
L -40 4219 
L -40 4850 
z
" transform="scale(0.015625)"/>
      </defs>
      <use xlink:href="#DejaVuSans-43f"/>
      <use xlink:href="#DejaVuSans-43e" x="65.380859"/>
      <use xlink:href="#DejaVuSans-43a" x="126.5625"/>
      <use xlink:href="#DejaVuSans-440" x="186.962891"/>
      <use xlink:href="#DejaVuSans-430" x="250.439453"/>
      <use xlink:href="#DejaVuSans-449" x="311.71875"/>
      <use xlink:href="#DejaVuSans-435" x="405.908203"/>
      <use xlink:href="#DejaVuSans-43d" x="467.431641"/>
      <use xlink:href="#DejaVuSans-43d" x="532.8125"/>
      <use xlink:href="#DejaVuSans-44f" x="598.193359"/>
      <use xlink:href="#DejaVuSans-20" x="658.349609"/>
      <use xlink:href="#DejaVuSans-440" x="690.136719"/>
      <use xlink:href="#DejaVuSans-435" x="753.613281"/>
      <use xlink:href="#DejaVuSans-430" x="815.136719"/>
      <use xlink:href="#DejaVuSans-43a" x="876.416016"/>
      <use xlink:href="#DejaVuSans-446" x="936.816406"/>
      <use xlink:href="#DejaVuSans-456" x="1004.882812"/>
      <use xlink:href="#DejaVuSans-457" x="1032.666016"/>
     </g>
    </g>
   </g>
   <g id="text_9">
    <g clip-path="url(#pa5ef3b4238)">
     <!-- плавання -->
     <g transform="translate(611.403638 277.059132)scale(0.1 -0.1)">
      <use xlink:href="#DejaVuSans-43f"/>
      <use xlink:href="#DejaVuSans-43b" x="65.380859"/>
      <use xlink:href="#DejaVuSans-430" x="129.296875"/>
      <use xlink:href="#DejaVuSans-432" x="190.576172"/>
      <use xlink:href="#DejaVuSans-430" x="249.511719"/>
      <use xlink:href="#DejaVuSans-43d" x="310.791016"/>
      <use xlink:href="#DejaVuSans-43d" x="376.171875"/>
      <use xlink:href="#DejaVuSans-44f" x="441.552734"/>
     </g>
    </g>
   </g>
   <g id="text_10">
    <g clip-path="url(#pa5ef3b4238)">
     <!-- можливість отримання травм -->
     <g transform="translate(353.205087 133.308616)scale(0.1 -0.1)">
      <defs>
       <path id="DejaVuSans-436" d="M 2597 3500 
L 3169 3500 
L 3169 1856 
L 4697 3500 
L 5366 3500 
L 4109 2153 
L 5547 0 
L 4931 0 
L 3753 1769 
L 3169 1141 
L 3169 0 
L 2597 0 
L 2597 1141 
L 2013 1769 
L 834 0 
L 219 0 
L 1656 2153 
L 400 3500 
L 1069 3500 
L 2597 1856 
L 2597 3500 
z
" transform="scale(0.015625)"/>
      </defs>
      <use xlink:href="#DejaVuSans-43c"/>
      <use xlink:href="#DejaVuSans-43e" x="75.439453"/>
      <use xlink:href="#DejaVuSans-436" x="136.621094"/>
      <use xlink:href="#DejaVuSans-43b" x="226.708984"/>
      <use xlink:href="#DejaVuSans-438" x="290.625"/>
      <use xlink:href="#DejaVuSans-432" x="355.615234"/>
      <use xlink:href="#DejaVuSans-456" x="414.550781"/>
      <use xlink:href="#DejaVuSans-441" x="442.333984"/>
      <use xlink:href="#DejaVuSans-442" x="497.314453"/>
      <use xlink:href="#DejaVuSans-44c" x="555.566406"/>
      <use xlink:href="#DejaVuSans-20" x="614.501953"/>
      <use xlink:href="#DejaVuSans-43e" x="646.289062"/>
      <use xlink:href="#DejaVuSans-442" x="707.470703"/>
      <use xlink:href="#DejaVuSans-440" x="765.722656"/>
      <use xlink:href="#DejaVuSans-438" x="829.199219"/>
      <use xlink:href="#DejaVuSans-43c" x="894.189453"/>
      <use xlink:href="#DejaVuSans-430" x="969.628906"/>
      <use xlink:href="#DejaVuSans-43d" x="1030.908203"/>
      <use xlink:href="#DejaVuSans-43d" x="1096.289062"/>
      <use xlink:href="#DejaVuSans-44f" x="1161.669922"/>
      <use xlink:href="#DejaVuSans-20" x="1221.826172"/>
      <use xlink:href="#DejaVuSans-442" x="1253.613281"/>
      <use xlink:href="#DejaVuSans-440" x="1311.865234"/>
      <use xlink:href="#DejaVuSans-430" x="1375.341797"/>
      <use xlink:href="#DejaVuSans-432" x="1436.621094"/>
      <use xlink:href="#DejaVuSans-43c" x="1495.556641"/>
     </g>
    </g>
   </g>
   <g id="text_11">
    <g clip-path="url(#pa5ef3b4238)">
     <!-- покращення фізичної форми -->
     <g transform="translate(734.668384 320.469242)scale(0.1 -0.1)">
      <defs>
       <path id="DejaVuSans-444" d="M 947 1747 
Q 947 1013 1173 702 
Q 1400 391 1784 391 
Q 2091 391 2447 916 
L 2447 2578 
Q 2091 3103 1784 3103 
Q 1400 3103 1173 2792 
Q 947 2481 947 1747 
z
M 2447 -1331 
L 2447 447 
Q 2269 153 2064 31 
Q 1859 -91 1600 -91 
Q 1078 -91 714 392 
Q 350 875 350 1734 
Q 350 2594 714 3089 
Q 1078 3584 1600 3584 
Q 1859 3584 2064 3465 
Q 2269 3347 2447 3053 
L 2447 4666 
L 3025 4666 
L 3025 3053 
Q 3203 3347 3408 3465 
Q 3613 3584 3872 3584 
Q 4394 3584 4758 3089 
Q 5122 2594 5122 1734 
Q 5122 875 4758 392 
Q 4394 -91 3872 -91 
Q 3613 -91 3408 31 
Q 3203 153 3025 447 
L 3025 -1331 
L 2447 -1331 
z
M 4525 1747 
Q 4525 2481 4298 2792 
Q 4072 3103 3688 3103 
Q 3381 3103 3025 2578 
L 3025 916 
Q 3381 391 3688 391 
Q 4072 391 4298 702 
Q 4525 1013 4525 1747 
z
" transform="scale(0.015625)"/>
       <path id="DejaVuSans-447" d="M 2625 0 
L 2625 1472 
L 1553 1472 
Q 1075 1472 756 1769 
Q 469 2038 469 2613 
L 469 3500 
L 1044 3500 
L 1044 2666 
Q 1044 2300 1206 2116 
Q 1372 1931 1697 1931 
L 2625 1931 
L 2625 3500 
L 3200 3500 
L 3200 0 
L 2625 0 
z
" transform="scale(0.015625)"/>
      </defs>
      <use xlink:href="#DejaVuSans-43f"/>
      <use xlink:href="#DejaVuSans-43e" x="65.380859"/>
      <use xlink:href="#DejaVuSans-43a" x="126.5625"/>
      <use xlink:href="#DejaVuSans-440" x="186.962891"/>
      <use xlink:href="#DejaVuSans-430" x="250.439453"/>
      <use xlink:href="#DejaVuSans-449" x="311.71875"/>
      <use xlink:href="#DejaVuSans-435" x="405.908203"/>
      <use xlink:href="#DejaVuSans-43d" x="467.431641"/>
      <use xlink:href="#DejaVuSans-43d" x="532.8125"/>
      <use xlink:href="#DejaVuSans-44f" x="598.193359"/>
      <use xlink:href="#DejaVuSans-20" x="658.349609"/>
      <use xlink:href="#DejaVuSans-444" x="690.136719"/>
      <use xlink:href="#DejaVuSans-456" x="775.634766"/>
      <use xlink:href="#DejaVuSans-437" x="803.417969"/>
      <use xlink:href="#DejaVuSans-438" x="856.591797"/>
      <use xlink:href="#DejaVuSans-447" x="921.582031"/>
      <use xlink:href="#DejaVuSans-43d" x="980.664062"/>
      <use xlink:href="#DejaVuSans-43e" x="1046.044922"/>
      <use xlink:href="#DejaVuSans-457" x="1107.226562"/>
      <use xlink:href="#DejaVuSans-20" x="1135.009766"/>
      <use xlink:href="#DejaVuSans-444" x="1166.796875"/>
      <use xlink:href="#DejaVuSans-43e" x="1252.294922"/>
      <use xlink:href="#DejaVuSans-440" x="1313.476562"/>
      <use xlink:href="#DejaVuSans-43c" x="1376.953125"/>
      <use xlink:href="#DejaVuSans-438" x="1452.392578"/>
     </g>
    </g>
   </g>
   <g id="text_12">
    <g clip-path="url(#pa5ef3b4238)">
     <!-- йога -->
     <g transform="translate(453.290614 188.465986)scale(0.1 -0.1)">
      <defs>
       <path id="DejaVuSans-433" d="M 581 0 
L 581 3500 
L 3050 3500 
L 3050 3041 
L 1159 3041 
L 1159 0 
L 581 0 
z
" transform="scale(0.015625)"/>
      </defs>
      <use xlink:href="#DejaVuSans-439"/>
      <use xlink:href="#DejaVuSans-43e" x="64.990234"/>
      <use xlink:href="#DejaVuSans-433" x="126.171875"/>
      <use xlink:href="#DejaVuSans-430" x="178.710938"/>
     </g>
    </g>
   </g>
   <g id="text_13">
    <g clip-path="url(#pa5ef3b4238)">
     <!-- потреба в часі для навчання -->
     <g transform="translate(166.239027 212.551032)scale(0.1 -0.1)">
      <use xlink:href="#DejaVuSans-43f"/>
      <use xlink:href="#DejaVuSans-43e" x="65.380859"/>
      <use xlink:href="#DejaVuSans-442" x="126.5625"/>
      <use xlink:href="#DejaVuSans-440" x="184.814453"/>
      <use xlink:href="#DejaVuSans-435" x="248.291016"/>
      <use xlink:href="#DejaVuSans-431" x="309.814453"/>
      <use xlink:href="#DejaVuSans-430" x="371.484375"/>
      <use xlink:href="#DejaVuSans-20" x="432.763672"/>
      <use xlink:href="#DejaVuSans-432" x="464.550781"/>
      <use xlink:href="#DejaVuSans-20" x="523.486328"/>
      <use xlink:href="#DejaVuSans-447" x="555.273438"/>
      <use xlink:href="#DejaVuSans-430" x="614.355469"/>
      <use xlink:href="#DejaVuSans-441" x="675.634766"/>
      <use xlink:href="#DejaVuSans-456" x="730.615234"/>
      <use xlink:href="#DejaVuSans-20" x="758.398438"/>
      <use xlink:href="#DejaVuSans-434" x="790.185547"/>
      <use xlink:href="#DejaVuSans-43b" x="859.326172"/>
      <use xlink:href="#DejaVuSans-44f" x="923.242188"/>
      <use xlink:href="#DejaVuSans-20" x="983.398438"/>
      <use xlink:href="#DejaVuSans-43d" x="1015.185547"/>
      <use xlink:href="#DejaVuSans-430" x="1080.566406"/>
      <use xlink:href="#DejaVuSans-432" x="1141.845703"/>
      <use xlink:href="#DejaVuSans-447" x="1200.78125"/>
      <use xlink:href="#DejaVuSans-430" x="1259.863281"/>
      <use xlink:href="#DejaVuSans-43d" x="1321.142578"/>
      <use xlink:href="#DejaVuSans-43d" x="1386.523438"/>
      <use xlink:href="#DejaVuSans-44f" x="1451.904297"/>
     </g>
    </g>
   </g>
   <g id="text_14">
    <g clip-path="url(#pa5ef3b4238)">
     <!-- гімнастика -->
     <g transform="translate(621.150662 504.604233)scale(0.1 -0.1)">
      <use xlink:href="#DejaVuSans-433"/>
      <use xlink:href="#DejaVuSans-456" x="52.539062"/>
      <use xlink:href="#DejaVuSans-43c" x="80.322266"/>
      <use xlink:href="#DejaVuSans-43d" x="155.761719"/>
      <use xlink:href="#DejaVuSans-430" x="221.142578"/>
      <use xlink:href="#DejaVuSans-441" x="282.421875"/>
      <use xlink:href="#DejaVuSans-442" x="337.402344"/>
      <use xlink:href="#DejaVuSans-438" x="395.654297"/>
      <use xlink:href="#DejaVuSans-43a" x="460.644531"/>
      <use xlink:href="#DejaVuSans-430" x="521.044922"/>
     </g>
    </g>
   </g>
   <g id="text_15">
    <g clip-path="url(#pa5ef3b4238)">
     <!-- високі вимоги до фізичної підготовки -->
     <g transform="translate(733.989769 512.293446)scale(0.1 -0.1)">
      <use xlink:href="#DejaVuSans-432"/>
      <use xlink:href="#DejaVuSans-438" x="58.935547"/>
      <use xlink:href="#DejaVuSans-441" x="123.925781"/>
      <use xlink:href="#DejaVuSans-43e" x="178.90625"/>
      <use xlink:href="#DejaVuSans-43a" x="240.087891"/>
      <use xlink:href="#DejaVuSans-456" x="300.488281"/>
      <use xlink:href="#DejaVuSans-20" x="328.271484"/>
      <use xlink:href="#DejaVuSans-432" x="360.058594"/>
      <use xlink:href="#DejaVuSans-438" x="418.994141"/>
      <use xlink:href="#DejaVuSans-43c" x="483.984375"/>
      <use xlink:href="#DejaVuSans-43e" x="559.423828"/>
      <use xlink:href="#DejaVuSans-433" x="620.605469"/>
      <use xlink:href="#DejaVuSans-438" x="673.144531"/>
      <use xlink:href="#DejaVuSans-20" x="738.134766"/>
      <use xlink:href="#DejaVuSans-434" x="769.921875"/>
      <use xlink:href="#DejaVuSans-43e" x="839.0625"/>
      <use xlink:href="#DejaVuSans-20" x="900.244141"/>
      <use xlink:href="#DejaVuSans-444" x="932.03125"/>
      <use xlink:href="#DejaVuSans-456" x="1017.529297"/>
      <use xlink:href="#DejaVuSans-437" x="1045.3125"/>
      <use xlink:href="#DejaVuSans-438" x="1098.486328"/>
      <use xlink:href="#DejaVuSans-447" x="1163.476562"/>
      <use xlink:href="#DejaVuSans-43d" x="1222.558594"/>
      <use xlink:href="#DejaVuSans-43e" x="1287.939453"/>
      <use xlink:href="#DejaVuSans-457" x="1349.121094"/>
      <use xlink:href="#DejaVuSans-20" x="1376.904297"/>
      <use xlink:href="#DejaVuSans-43f" x="1408.691406"/>
      <use xlink:href="#DejaVuSans-456" x="1474.072266"/>
      <use xlink:href="#DejaVuSans-434" x="1501.855469"/>
      <use xlink:href="#DejaVuSans-433" x="1570.996094"/>
      <use xlink:href="#DejaVuSans-43e" x="1623.535156"/>
      <use xlink:href="#DejaVuSans-442" x="1684.716797"/>
      <use xlink:href="#DejaVuSans-43e" x="1742.96875"/>
      <use xlink:href="#DejaVuSans-432" x="1804.150391"/>
      <use xlink:href="#DejaVuSans-43a" x="1863.085938"/>
      <use xlink:href="#DejaVuSans-438" x="1923.486328"/>
     </g>
    </g>
   </g>
   <g id="text_16">
    <g clip-path="url(#pa5ef3b4238)">
     <!-- вплив на всі групи м'язів -->
     <g transform="translate(774.884145 421.371521)scale(0.1 -0.1)">
      <defs>
       <path id="DejaVuSans-27" d="M 1147 4666 
L 1147 2931 
L 616 2931 
L 616 4666 
L 1147 4666 
z
" transform="scale(0.015625)"/>
      </defs>
      <use xlink:href="#DejaVuSans-432"/>
      <use xlink:href="#DejaVuSans-43f" x="58.935547"/>
      <use xlink:href="#DejaVuSans-43b" x="124.316406"/>
      <use xlink:href="#DejaVuSans-438" x="188.232422"/>
      <use xlink:href="#DejaVuSans-432" x="253.222656"/>
      <use xlink:href="#DejaVuSans-20" x="312.158203"/>
      <use xlink:href="#DejaVuSans-43d" x="343.945312"/>
      <use xlink:href="#DejaVuSans-430" x="409.326172"/>
      <use xlink:href="#DejaVuSans-20" x="470.605469"/>
      <use xlink:href="#DejaVuSans-432" x="502.392578"/>
      <use xlink:href="#DejaVuSans-441" x="561.328125"/>
      <use xlink:href="#DejaVuSans-456" x="616.308594"/>
      <use xlink:href="#DejaVuSans-20" x="644.091797"/>
      <use xlink:href="#DejaVuSans-433" x="675.878906"/>
      <use xlink:href="#DejaVuSans-440" x="728.417969"/>
      <use xlink:href="#DejaVuSans-443" x="791.894531"/>
      <use xlink:href="#DejaVuSans-43f" x="851.074219"/>
      <use xlink:href="#DejaVuSans-438" x="916.455078"/>
      <use xlink:href="#DejaVuSans-20" x="981.445312"/>
      <use xlink:href="#DejaVuSans-43c" x="1013.232422"/>
      <use xlink:href="#DejaVuSans-27" x="1088.671875"/>
      <use xlink:href="#DejaVuSans-44f" x="1116.162109"/>
      <use xlink:href="#DejaVuSans-437" x="1176.318359"/>
      <use xlink:href="#DejaVuSans-456" x="1229.492188"/>
      <use xlink:href="#DejaVuSans-432" x="1257.275391"/>
     </g>
    </g>
   </g>
   <g id="text_17">
    <g clip-path="url(#pa5ef3b4238)">
     <!-- зниження стресу -->
     <g transform="translate(643.43058 165.033779)scale(0.1 -0.1)">
      <use xlink:href="#DejaVuSans-437"/>
      <use xlink:href="#DejaVuSans-43d" x="53.173828"/>
      <use xlink:href="#DejaVuSans-438" x="118.554688"/>
      <use xlink:href="#DejaVuSans-436" x="183.544922"/>
      <use xlink:href="#DejaVuSans-435" x="273.632812"/>
      <use xlink:href="#DejaVuSans-43d" x="335.15625"/>
      <use xlink:href="#DejaVuSans-43d" x="400.537109"/>
      <use xlink:href="#DejaVuSans-44f" x="465.917969"/>
      <use xlink:href="#DejaVuSans-20" x="526.074219"/>
      <use xlink:href="#DejaVuSans-441" x="557.861328"/>
      <use xlink:href="#DejaVuSans-442" x="612.841797"/>
      <use xlink:href="#DejaVuSans-440" x="671.09375"/>
      <use xlink:href="#DejaVuSans-435" x="734.570312"/>
      <use xlink:href="#DejaVuSans-441" x="796.09375"/>
      <use xlink:href="#DejaVuSans-443" x="851.074219"/>
     </g>
    </g>
   </g>
   <g id="text_18">
    <g clip-path="url(#pa5ef3b4238)">
     <!-- покращення гнучкості -->
     <g transform="translate(439.434328 568.018571)scale(0.1 -0.1)">
      <use xlink:href="#DejaVuSans-43f"/>
      <use xlink:href="#DejaVuSans-43e" x="65.380859"/>
      <use xlink:href="#DejaVuSans-43a" x="126.5625"/>
      <use xlink:href="#DejaVuSans-440" x="186.962891"/>
      <use xlink:href="#DejaVuSans-430" x="250.439453"/>
      <use xlink:href="#DejaVuSans-449" x="311.71875"/>
      <use xlink:href="#DejaVuSans-435" x="405.908203"/>
      <use xlink:href="#DejaVuSans-43d" x="467.431641"/>
      <use xlink:href="#DejaVuSans-43d" x="532.8125"/>
      <use xlink:href="#DejaVuSans-44f" x="598.193359"/>
      <use xlink:href="#DejaVuSans-20" x="658.349609"/>
      <use xlink:href="#DejaVuSans-433" x="690.136719"/>
      <use xlink:href="#DejaVuSans-43d" x="742.675781"/>
      <use xlink:href="#DejaVuSans-443" x="808.056641"/>
      <use xlink:href="#DejaVuSans-447" x="867.236328"/>
      <use xlink:href="#DejaVuSans-43a" x="926.318359"/>
      <use xlink:href="#DejaVuSans-43e" x="986.71875"/>
      <use xlink:href="#DejaVuSans-441" x="1047.900391"/>
      <use xlink:href="#DejaVuSans-442" x="1102.880859"/>
      <use xlink:href="#DejaVuSans-456" x="1161.132812"/>
     </g>
    </g>
   </g>
  </g>
 </g>
 <defs>
  <clipPath id="pa5ef3b4238">
   <rect x="126" y="86.4" width="781.2" height="554.4"/>
  </clipPath>
 </defs>
</svg>
